<svg width="24" height="20" viewBox="0 0 24 20" fill="none" xmlns="http://www.w3.org/2000/svg">
<path fill-rule="evenodd" clip-rule="evenodd" d="M1.49012e-08 10C1.49012e-08 9.44771 0.447715 9 1 9H23C23.5523 9 24 9.44771 24 10C24 10.5523 23.5523 11 23 11H1C0.447715 11 1.49012e-08 10.5523 1.49012e-08 10Z" fill="black"/>
<path fill-rule="evenodd" clip-rule="evenodd" d="M10.7071 0.292893C11.0976 0.683417 11.0976 1.31658 10.7071 1.70711L2.41421 10L10.7071 18.2929C11.0976 18.6834 11.0976 19.3166 10.7071 19.7071C10.3166 20.0976 9.68342 20.0976 9.29289 19.7071L0.292893 10.7071C-0.0976311 10.3166 -0.0976311 9.68342 0.292893 9.29289L9.29289 0.292893C9.68342 -0.0976311 10.3166 -0.0976311 10.7071 0.292893Z" fill="black"/>
</svg>
