<svg width="22" height="22" viewBox="0 0 22 22" fill="none" xmlns="http://www.w3.org/2000/svg">
<path fill-rule="evenodd" clip-rule="evenodd" d="M16.0566 8.00166C16.3664 8.32634 16.3543 8.84064 16.0296 9.15039L10.0679 14.8379C9.75376 15.1376 9.25955 15.1373 8.94569 14.8374L5.96991 11.9937C5.64549 11.6836 5.63382 11.1693 5.94384 10.8449C6.25387 10.5205 6.76818 10.5088 7.0926 10.8188L9.50751 13.1266L14.9079 7.97462C15.2326 7.66487 15.7469 7.67698 16.0566 8.00166Z" fill="#3DC03C"/>
<path fill-rule="evenodd" clip-rule="evenodd" d="M11 2.0625C6.06395 2.0625 2.0625 6.06395 2.0625 11C2.0625 15.936 6.06395 19.9375 11 19.9375C15.936 19.9375 19.9375 15.936 19.9375 11C19.9375 6.06395 15.936 2.0625 11 2.0625ZM0.4375 11C0.4375 5.16649 5.16649 0.4375 11 0.4375C16.8335 0.4375 21.5625 5.16649 21.5625 11C21.5625 16.8335 16.8335 21.5625 11 21.5625C5.16649 21.5625 0.4375 16.8335 0.4375 11Z" fill="#3DC03C"/>
</svg>
