<svg width="22" height="20" viewBox="0 0 22 20" fill="none" xmlns="http://www.w3.org/2000/svg">
<path fill-rule="evenodd" clip-rule="evenodd" d="M19.3387 0.506996C19.5976 0.406621 19.8789 0.378442 20.1526 0.425466C20.4263 0.472491 20.6821 0.592952 20.8926 0.773996C21.1032 0.955037 21.2606 1.18986 21.3481 1.4534C21.4357 1.71694 21.45 1.99929 21.3895 2.27033L21.3886 2.27462L17.7852 18.0105C17.7257 18.2697 17.5997 18.5094 17.4198 18.7052C17.2399 18.901 17.0121 19.0467 16.7588 19.1279C16.5056 19.2091 16.2355 19.223 15.9753 19.1683C15.7155 19.1137 15.4744 18.9926 15.2755 18.8169L15.2743 18.8159L6.81483 11.3727L1.90826 10.3877L1.90511 10.387C0.431352 10.0847 0.204881 8.0204 1.64526 7.45593L19.3356 0.508221L19.3387 0.506996ZM2.20955 8.88166L2.21001 8.88425L2.21238 8.88479L2.21322 8.88496L7.31798 9.90974C7.44989 9.93622 7.57251 9.99695 7.67352 10.0858L16.2889 17.6662L16.2907 17.6678L19.893 1.93665L2.20955 8.88166Z" fill="#F1F4F8"/>
<path fill-rule="evenodd" clip-rule="evenodd" d="M20.8316 0.79209C21.0795 1.13534 21.0023 1.61457 20.659 1.86249L7.61609 11.2829C7.27284 11.5308 6.7936 11.4535 6.54569 11.1103C6.29777 10.767 6.37505 10.2878 6.7183 10.0399L19.7612 0.619474C20.1045 0.371557 20.5837 0.44884 20.8316 0.79209Z" fill="#F1F4F8"/>
<path fill-rule="evenodd" clip-rule="evenodd" d="M7.16714 9.89475C7.59056 9.89475 7.93381 10.238 7.93381 10.6614L7.9338 16.8989L7.93792 16.8947L10.9279 13.9047C11.2273 13.6053 11.7128 13.6053 12.0122 13.9047C12.3116 14.2041 12.3116 14.6895 12.0122 14.9889L9.02389 17.9772C8.8109 18.1925 8.53891 18.34 8.2422 18.4009C7.94437 18.462 7.63508 18.4333 7.35364 18.3182C7.07219 18.2032 6.83131 18.0071 6.66159 17.7548C6.49187 17.5025 6.40098 17.2055 6.40047 16.9014L6.40047 10.6614C6.40047 10.238 6.74372 9.89475 7.16714 9.89475Z" fill="#F1F4F8"/>
</svg>
