<svg width="20" height="20" viewBox="0 0 20 20" fill="none" xmlns="http://www.w3.org/2000/svg">
<path d="M18.5698 4.91604C15.7681 0.18837 9.64193 -1.37825 4.91518 1.42401C0.284336 4.1687 -1.31267 10.1042 1.25789 14.7896L0.445476 17.6591C0.363947 17.9392 0.363947 18.2347 0.445476 18.5148C0.68143 19.3226 1.53029 19.7869 2.33119 19.5528L5.2058 18.7383C6.69826 19.5566 8.34706 19.9663 9.99586 19.9663C11.7531 19.9663 13.5102 19.502 15.0775 18.5724C17.367 17.2149 18.9919 15.0468 19.6508 12.4671C20.3107 9.88738 19.9261 7.206 18.5689 4.91508L18.5698 4.91604ZM18.1651 12.0872C17.6068 14.2697 16.2333 16.104 14.2958 17.2523C11.6447 18.8237 8.34994 18.8237 5.69785 17.2523C5.57796 17.1813 5.44272 17.1448 5.30651 17.1448C5.2365 17.1448 5.16648 17.1544 5.09742 17.1736L1.92355 18.0725L2.82228 14.8981C2.87983 14.6956 2.85106 14.4788 2.74363 14.2975C0.373538 10.298 1.69814 5.11462 5.69785 2.74407C9.6966 0.373524 14.879 1.69838 17.2491 5.69886C18.3972 7.63675 18.7223 9.90561 18.1641 12.0872H18.1651Z" fill="white"/>
<path d="M15.0363 11.431L13.0767 10.3076C12.5971 10.038 12.0053 10.0457 11.5305 10.3277L10.3882 11.0117C9.80403 10.675 9.31965 10.1905 8.98299 9.60629L9.66783 8.46179C9.94887 7.98883 9.95558 7.39691 9.68318 6.91052L8.56287 4.95729C8.30966 4.50544 7.83007 4.22627 7.3198 4.23202C5.42257 4.23202 3.87353 5.77561 3.86681 7.6732V7.71637C3.87257 9.96892 4.755 12.0843 6.35104 13.673C7.9423 15.2568 10.0534 16.1279 12.2969 16.1279C12.3055 16.1279 12.3142 16.1279 12.3218 16.1279C14.2104 16.1145 15.7528 14.5661 15.7595 12.68C15.7633 12.162 15.4861 11.6842 15.0343 11.431H15.0363ZM12.3142 14.593H12.2988C10.463 14.593 8.73648 13.8802 7.4349 12.5851C6.12948 11.2851 5.40723 9.55544 5.40243 7.71158V7.67896C5.40627 6.6467 6.23115 5.80343 7.26033 5.76794L8.34994 7.66745L8.3509 7.67512L7.44929 9.1813C7.32076 9.39619 7.30445 9.66097 7.40804 9.89026C7.94709 11.0904 8.9053 12.0478 10.1052 12.5879C10.3345 12.6906 10.5992 12.6752 10.814 12.5467L12.3209 11.643L14.2267 12.7357C14.1893 13.7583 13.3453 14.5853 12.3151 14.5939L12.3142 14.593Z" fill="white"/>
</svg>
